Patient4_TMGait_0pt2_03_left_21_EMG.mot
version=1
nRows=37
nColumns=33
inDegrees=no
endheader
time	1LAddLong	2LGlutMax	3LGlutMed	4LIliopsoas	5LSemiMemb	6LBicFemLong	7LRecFem	8LVastMed	9LVastLat	10LGasMed	11LTibAnt	12lTibPost	13LPeroneusLong	14LSol	15LExtDigLong	16LFlexDigLong	17RAddLong	18RGlutMax	19RGlutMed	20RIliopsoas	21RSemiMemb	22RBicFemLong	23RRecFem	24RVastMed	25RVastLat	26RGasMed	27RTibAnt	28RTibPost	29RPeroneusLong	30RSol	31RExtDigLong	32RFlexDigLong
43.96	0.009003	-0.10864	0.082092	0.000305	0.031738	-0.04425	0.14679	0.006866	0.011139	0.04425	-0.008698	0.016785	-0.087585	-0.007935	-0.64667	0.059052	-0.021057	-0.13458	0.86319	0.002899	0.99518	0.10742	0.30716	-1.0011	-0.16434	-0.099182	0.10864	0.14343	-0.19287	-0.53177	0.00412	-0.0354
43.961	0.004883	-0.079803	0.083008	0.013275	0.038605	-0.034485	0.1387	0.00946	0.011139	0.037384	-0.16266	0.025635	-0.026703	0.019684	-0.5838	0.052643	-0.002747	-0.067139	0.48752	-0.05127	0.47806	0.2327	0.3923	-1.2682	-0.18051	-0.035706	0.074768	-0.11643	0.55222	0.44739	0.003357	-0.025177
43.962	0.00412	-0.067749	0.028839	0.022888	0.030823	-0.01236	0.10941	0.001373	-0.003967	-0.021973	-0.12604	0.026245	0.067291	0.002136	-0.16495	0.06012	-0.045013	0.001373	-0.60928	0.066986	-0.026398	0.20523	0.45517	-0.79681	-0.11368	0.052032	-0.028687	0.036621	0.76385	2.0419	-0.003052	-0.009613
43.963	0.006256	-0.042725	-0.036774	-0.014801	0.024261	0.001068	0.060577	0.007935	0.013123	-0.010223	0.14282	0.029144	0.018616	-0.064545	0.11032	0.044861	-0.032349	0.078888	-1.3074	0.22705	-0.12573	0.086212	0.29312	-0.40314	0.18784	0.098419	-0.1207	0.027618	0.70343	1.9389	0.002136	-0.010071
43.964	0.008087	-0.049896	-0.027771	-0.007477	0.020142	0.023956	0.059814	0.007172	-0.002136	-0.001068	0.13748	0.014496	0.006714	-0.090179	-0.069122	0.036316	0.011292	0.17487	-0.66757	0.10361	-0.14694	-0.09552	0.19531	-0.21301	0.45731	0.081329	-0.066376	0.045319	0.76797	1.0309	0.00061	-0.008698
43.965	0.002594	-0.059052	0.00473	0.009155	0.017395	0.014648	-0.001373	0.005188	-0.002899	0.009155	0.044708	0.013275	0.009918	-0.15106	0.12192	0.043793	0.063782	0.24063	0.52261	-0.15472	-0.12878	-0.15533	-0.059204	-0.80032	0.3537	-0.007935	-0.011139	0.046082	0.37994	0.21896	-0.001831	-0.015717
43.966	-0.002594	-0.079193	-0.016785	0.027466	0.024872	0.027008	-0.013885	0.004578	-0.001831	0.009308	0.041962	0.012054	-0.014648	-0.14877	-0.044556	0.039825	0.091858	0.080414	1.0124	-0.24445	-0.10223	-0.24078	-0.16754	-0.8313	0.3096	-0.071564	0.15121	0.022888	-0.72739	-0.23346	0.002136	-0.016327
43.967	0.006256	-0.045319	0.05127	0.020294	0.016937	0.013733	-0.12512	0.009766	-0.002136	0.032806	0.15442	0.011597	-0.020447	-0.17364	0.063782	0.049591	0.086975	0.009613	0.51849	-0.027466	-0.059967	-0.30182	-0.13473	-0.68649	0.22537	-0.053406	0.10178	0.00473	-0.42831	-0.19363	0.000153	-0.018463
43.968	0.013428	-0.052795	0.021515	0.018158	0.019073	0.004272	-0.18234	0.009155	0.010681	0.033875	0.059357	0.00885	-0.003662	-0.12329	0.15274	0.032806	0.066833	-0.019684	0.62744	-0.003662	-0.012207	-0.20966	-0.020142	-0.81863	0.17059	-0.046844	0.058441	-0.029449	0.15457	0.057526	0.001373	-0.023346
43.969	0.011902	-0.000916	-0.000916	0.00412	0.022736	-0.01236	-0.27466	0.029297	0.010376	0.036316	0.047913	0.011292	0.020447	-0.067444	0.30182	0.032806	0.027466	0.15076	-0.013275	0.067444	0.019379	-0.10101	0.15625	-0.67703	0.061798	-0.042572	-0.036469	-0.034332	0.28214	0.2095	0.001678	-0.018616
43.97	0.019226	-0.015259	-0.022583	-0.007324	0.020142	-0.036316	-0.26001	0.026245	0.013885	0.043335	0.088348	0.007782	-0.02594	-0.076141	0.061493	0.032806	-0.019073	0.13947	-0.65292	0.25162	0.068054	0.087585	0.2272	0.21378	-0.36102	0.051117	0.031128	-0.050964	-0.46845	0.14557	0.000305	-0.004425
43.971	0.016022	-0.019989	-0.010223	-0.010376	0.019684	-0.036316	-0.26154	0.004578	0.022736	0.047302	0.10147	0.010376	-0.091553	-0.064697	0.39978	0.027313	-0.011902	0.18127	-0.48828	0.27893	0.045776	0.19104	0.29129	0.97519	-0.16541	0.077209	-0.026245	-0.052185	0.36011	0.13763	0.00351	-0.014801
43.972	0.022736	-0.015106	0.012512	-0.023346	0.024109	-0.03891	-0.168	0.01236	0.006409	0.060425	0.12344	0.002899	-0.097504	-0.020447	0.11917	0.03067	-0.040283	0.26032	-0.5011	0.22369	-0.011902	0.14816	0.027618	1.1984	0.030518	0.083466	-0.103	-0.048523	0.053711	0.059204	0.002594	-0.002136
43.973	0.006714	-0.012512	0.022278	0.002441	0.022278	-0.017853	-0.086823	0.00473	0.014343	0.054474	0.082397	0.002441	-0.092316	0.009613	0.089264	0.031281	-0.034027	0.28931	-0.20172	0.08316	-0.083618	0.057068	0.11002	1.4803	-0.053711	0.07309	-0.012512	0.042572	-0.089874	-0.21149	-0.001221	-0.009766
43.974	0.005493	-0.021973	0.034332	0.016174	0.032959	-0.032196	-0.047455	-0.002289	0.016479	0.031891	0.15045	0.007477	-0.049896	0.099792	0.1857	0.028839	-0.017853	0.30029	-0.15366	0.000763	-0.075073	-0.023956	0.26688	1.1694	-0.13626	0.041809	0.033722	-0.015411	-0.50446	-0.24231	0.001984	-0.014343
43.975	0.006866	-0.03006	-0.006409	0.00351	0.023956	-0.056152	-0.032349	0.005035	0.009918	-0.005188	0.12634	-0.001678	0.031738	0.15701	0.009308	0.03006	0.001831	0.25284	1.6504	-0.13794	-0.052338	-0.061951	-0.029449	0.8403	-0.14404	0.027313	0.15213	-0.037079	-1.2448	-0.12054	0.001984	-0.00824
43.976	-0.000153	-0.016632	-0.005951	-0.007782	0.030212	-0.071411	-0.015106	-0.003357	0.006866	-0.029755	-0.028839	0.010529	0.085754	0.13809	-0.12955	0.02182	-0.010681	0.16815	1.9678	-0.22903	-0.02655	0.060577	-0.46539	0.2327	0.081787	0.023956	0.043945	-0.033875	0.072632	-0.13397	-0.002289	-0.007477
43.977	0.003357	-0.013123	-0.006256	0.004578	0.026245	-0.065002	0.014801	-0.002594	0.004425	-0.020142	-0.095062	0.003357	0.059814	0.078278	-0.15915	0.018158	-0.00885	0.10208	0.87082	-0.12558	-0.012512	0.32577	-0.86227	-0.48691	0.22659	0.022736	-0.038605	-0.029755	0.1947	-0.16174	0.000916	-0.014343
43.978	0.015106	-0.024261	-0.030365	0.015717	0.022125	-0.056458	-0.000458	0.00351	0.010376	-0.021057	0.013275	0.009003	0.03952	0.11169	-0.20844	0.010376	0.030975	0.13199	0.28229	-0.008698	0.007629	0.30975	-0.68085	-0.63263	0.354	0.011139	-0.066986	-0.02243	0.033875	-0.12695	0.00061	-0.017395
43.979	-0.000763	-0.004883	-0.007172	0.00351	0.027924	-0.053864	0.017242	0.007629	0.012817	0.013275	0.060577	0.004883	-0.010681	0.062714	-0.25909	0.010834	0.05249	0.25085	0.45151	-0.012207	0.022278	0.23361	-0.12299	-0.69977	0.26337	0.007629	0.004425	-0.02182	-0.090942	-0.065002	0.010071	-0.010071
43.98	0.001984	-0.019379	-0.023651	0.001984	0.019836	-0.039215	0.033722	0.010071	0.004883	0.029907	0.011444	0.001373	-0.037842	-0.044708	-0.24185	0.005035	0.041199	0.21194	0.099335	0.041656	0.049438	0.17883	-0.044556	-1.0748	0.27252	0.015106	0.046844	-0.028381	-0.2066	-0.052948	0.006256	-0.003357
43.981	-0.008545	0.027313	-0.022888	-0.006409	0.018768	-0.046997	0.039673	0.009155	0.002594	0.029907	-0.1384	0.012207	0.018311	-0.036469	-0.24841	0.002899	0.088348	0.12207	-0.74539	0.063019	-0.20401	0.13473	-0.15076	-0.82336	0.31097	0.015564	-0.023651	-0.023804	0.46753	-0.044403	0.005035	-0.012817
43.982	-0.004883	0.000916	-0.168	0.00824	0.02594	-0.063629	0.018005	0.002747	0.007172	0.010223	-0.047302	0.017548	-0.002136	-0.013733	0.28625	-0.00824	0.094757	0.072784	-1.1848	0.007782	-0.057831	0.14771	-0.084839	-0.23621	0.15381	0.009155	-0.061798	-0.01236	1.1725	-0.056305	0.009308	-0.015869
43.983	0.007172	0.019684	-0.27054	0.010834	0.02243	-0.07843	0.035858	0.010834	0.004578	-0.002594	-0.005493	0.000458	-0.00351	0	0.45868	-0.009613	0.075378	0.078888	-0.69076	-0.044861	0.071259	0.045776	0.017395	0.37918	-0.00473	0.006256	-0.02594	-0.006256	0.89951	-0.047302	0.003052	-0.026703
43.984	-0.003204	0.002899	-0.17868	-0.011902	0.037842	-0.073853	0.018463	0.001221	0.000153	-0.018921	-0.24292	0.009918	0.043335	-0.079193	0.20111	-0.020447	0.072327	0.029144	0.13672	-0.035553	0.034485	-0.17029	0.12207	0.27481	-0.039368	0.018463	0.053558	-0.010529	-0.59982	0.075226	0.003662	-0.018616
43.985	0.005341	0.029907	0.088501	0.004425	0.027771	-0.082092	0.022888	0.001831	0.001221	-0.026855	-0.19486	0.015259	0.033112	-0.095215	-0.41168	-0.027771	0.014496	0.02182	1.2021	-0.068512	-0.021515	-0.17044	0.17441	0.11292	-0.005493	0.038147	0.14862	-0.009308	-2.3834	-0.046387	0.002441	-0.013733
43.986	0.008087	0.028076	0.032196	0.003967	0.027618	-0.051727	0.0177	0.00473	-0.021667	0.010834	-0.070953	0.016479	-0.023346	-0.12833	-0.36774	-0.022583	-0.030365	-0.12024	1.5929	-0.030518	-0.11444	-0.23758	0.005493	0.18601	-0.007324	0.019836	0.007629	-0.005341	-0.37216	-0.25848	0.003662	-0.008392
43.987	0.008392	-0.004272	-0.061493	0.013428	0.030365	-0.055084	-0.006104	-0.000916	-0.012207	0.004578	-0.030212	0.012665	-0.030518	-0.10223	-0.16678	-0.035248	-0.054779	-0.23483	0.004425	0.078583	-0.057831	-0.2626	-0.11002	0.23086	-0.15549	0.005493	-0.1593	0.000153	1.7044	-0.18372	0.001373	-0.008698
43.988	0.011292	0.029144	-0.053253	0.00824	0.026398	-0.0354	0.013275	0.007172	-0.003815	0.013733	-0.041962	0.013885	-0.019226	-0.035858	-0.088806	-0.012817	-0.030975	-0.33905	-0.57068	0.1059	-0.020142	0.019226	0.017242	0.12817	-0.34668	-0.04715	-0.10605	0.000763	0.41412	-0.12497	0.000916	-0.008087
43.989	0.009918	0.007935	-0.002136	0.021515	0.032654	-0.037384	0.016022	0.001373	-0.002899	0.009003	-0.02121	0.023804	-0.041504	0.069427	0.6807	-0.02243	-0.00885	-0.38269	-0.34607	0.079041	-0.1178	-0.049744	0.26321	-0.28168	-0.42404	-0.1033	0.032349	-0.040588	-0.77774	-0.1207	0.002136	-0.012512
43.99	0.01236	-0.025787	0.17029	0.005951	0.025024	-0.0383	0.009308	-0.000916	-0.010681	0.002747	-0.058899	0.014343	-0.042419	0.035706	-0.38971	-0.050812	-0.034027	-0.3952	0.20798	0.037842	-0.1535	-0.11322	0.33783	-0.43152	-0.31967	-0.001068	-0.12878	-0.28046	0.16235	-0.41336	-0.000458	0.001373
43.991	0.007629	-0.032654	0.22842	0.018921	0.025482	-0.019836	0.003204	-0.003357	-0.005188	-0.007477	-0.0737	0.013733	-0.018921	-0.007629	-0.089569	-0.039673	-0.056	-0.40802	-0.15213	0.12558	-0.039215	-0.040588	0.20416	-0.16434	-0.24674	0.071106	-0.17364	0.097504	0.31281	-0.327	0.002289	-0.007782
43.992	0.000305	-0.033722	0.15411	0.037079	0.027771	-0.038605	0.00061	0.001068	-0.007935	-0.003204	-0.009918	0.02243	-0.040588	-0.032959	-0.29236	-0.03006	-0.007782	-0.39825	0.14999	-0.019073	-0.11581	0.030518	0.16388	0.062103	-0.1799	0.039368	-0.026703	0.14358	-0.25818	0.14053	0	0.003357
43.993	0.008087	-0.025482	0.1387	0.037689	0.023956	-0.036469	-0.011902	0.005646	-0.011597	0.018616	0.12573	0.019684	-0.067749	-0.005646	0.24628	-0.037689	0.024109	-0.31677	0.60791	-0.19302	-0.16205	0.14557	0.090485	0.020599	-0.12375	0.024719	0.035095	0.065155	-0.30075	0.2269	0.005493	-0.016022
43.994	0.006866	-0.010223	0.092468	0.025177	0.031433	-0.039673	-0.013733	0.000458	-0.014343	0.013885	0.2124	0.015411	-0.070801	0.04425	0.34409	-0.041504	0.023193	-0.26108	-0.12894	-0.19928	-0.085144	0.17181	-0.15656	0.30548	-0.035553	-0.047607	0.048065	0.016479	-0.009918	0.34576	0.004425	-0.011444
43.995	0.007935	-0.007782	0.15686	-0.002441	0.027924	-0.061798	-0.013275	-0.001373	-0.007782	0.009613	0.23132	0.012054	-0.059967	0.063324	0.061035	-0.077667	-0.012817	-0.15152	-0.5275	-0.12833	0.17075	0.094452	-0.31403	0.46341	0.014954	-0.095215	0.04837	-0.1416	-0.072174	0.34775	0.001984	-0.014954
43.996	0.00824	0.026093	0.072632	0.018616	0.028229	-0.054016	-0.020905	0.001678	0.002899	0.007019	0.1329	0.021362	-0.082703	-0.00885	-0.17716	-0.050201	-0.032959	-0.095062	-0.024109	-0.12497	0.23453	-0.011292	-0.40466	-0.015869	0.063934	-0.11536	0.017395	0.062866	0.027466	0.40268	0.001373	-0.005951
